<svg xmlns="http://www.w3.org/2000/svg" viewBox="0 0 300 80" width="300" height="80">
  <path d="M20,55 C25,30 35,25 45,30 C55,35 50,50 60,45 C70,40 75,25 85,28 C95,31 90,48 100,42 C110,36 115,28 125,32 C128,33 126,42 130,40" 
    fill="none" stroke="#1a1a2e" stroke-width="2" stroke-linecap="round" stroke-linejoin="round"/>
  <path d="M135,38 C140,35 145,30 150,32 C155,34 152,42 158,38 C164,34 168,28 175,30" 
    fill="none" stroke="#1a1a2e" stroke-width="2" stroke-linecap="round"/>
  <path d="M145,48 C160,48 180,46 195,50" 
    fill="none" stroke="#1a1a2e" stroke-width="1.5" stroke-linecap="round"/>
  <path d="M180,30 C185,25 192,22 198,28 C204,34 195,42 205,38 C215,34 220,28 230,35 C235,38 228,48 240,42 C248,38 255,44 260,40" 
    fill="none" stroke="#1a1a2e" stroke-width="2" stroke-linecap="round" stroke-linejoin="round"/>
  <path d="M240,50 C250,48 260,52 270,48" 
    fill="none" stroke="#1a1a2e" stroke-width="1.5" stroke-linecap="round"/>
</svg>